# xmcd
#
# Track frame offsets:
#	150
#	12460
#	23475
#	35552
#	51480
#	64265
#	76565
#	91905
#	114087
#	124070
#	136867
#	148045
#	175365
#	188582
#	201457
#	213200
#
# Disc length: 3016 seconds
#
# Revision: 3
# Processed by: cddbd v1.4PL0 Copyright (c) Steve Scherf et al.
# Submitted via: audiograbber 1.81.03
#
DISCID=d70bc610
DTITLE=Various Artist - Blues Classics - CD 1
DYEAR=1994
DGENRE=Blues
TTITLE0=John Lee Hooker - I'm In The Mood
TTITLE1=Howlin' Wolf - The Red Rooster
TTITLE2=Little Milton - We're Gonna Make It
TTITLE3=Johnny Otis - Bad Luck Show
TTITLE4=Sonny Boy Williamson - Keep It To Yourself
TTITLE5=Little Walter - Juke
TTITLE6=Muddy Waters - They Call Me Muddy Waters
TTITLE7=Joe Turner - Wee Baby Blues
TTITLE8=Buddy Guy - First Time I Met The Blues
TTITLE9=Etta James - Something's Got A Hold On Me
TTITLE10=Lowell Fulson - Blue Shadows
TTITLE11=Bishop Gatemouth Moore - Beale Street Ain't Beale Street No More
TTITLE12=Howlin' Wolf - Moanin' At Midnight
TTITLE13=Big Bill Broonzy and Washboard Sam - Little City Women
TTITLE14=Sonny Boy Williamson - Don't Start Me Talkin'
TTITLE15=Muddy Waters - Manish Boy (Live)
EXTD=
EXTT0=John Lee Hooker
EXTT1=Howlin' Wolf
EXTT2=Little Milton
EXTT3=Johnny Otis
EXTT4=Sonny Boy Williamson
EXTT5=Little Walter
EXTT6=Muddy Waters
EXTT7=Joe Turner
EXTT8=Buddy Guy
EXTT9=Etta James
EXTT10=Lowell Fulson
EXTT11=Bishop Gatemouth Moore (Arnold Dwight)
EXTT12=Howlin' Wolf
EXTT13=Big Bill Broonzy and Washboard Sam
EXTT14=Sonny Boy Williamson
EXTT15=Muddy Waters
PLAYORDER=
